<svg width="375" height="812" viewBox="0 0 375 812" fill="none" xmlns="http://www.w3.org/2000/svg">
  <rect width="375" height="812" fill="#0F172A"/>

  <!-- Status bar -->
  <text x="20" y="52" fill="#64748B" font-size="14" font-family="system-ui">9:41</text>
  <rect x="310" y="42" width="24" height="12" rx="3" fill="#64748B"/>
  <rect x="280" y="44" width="16" height="8" rx="1" fill="#64748B"/>
  <rect x="256" y="44" width="16" height="8" rx="1" fill="#64748B"/>

  <!-- Header -->
  <rect x="16" y="70" width="32" height="32" rx="8" fill="#3B82F6"/>
  <text x="56" y="92" fill="#FFFFFF" font-size="18" font-weight="600" font-family="system-ui">Utajiri</text>
  <circle cx="343" cy="86" r="18" fill="#1E293B"/>
  <text x="337" y="91" fill="#94A3B8" font-size="12" font-family="system-ui">SW</text>

  <!-- Balance Card -->
  <rect x="16" y="120" width="343" height="120" rx="16" fill="url(#balanceGrad)"/>
  <text x="32" y="152" fill="#93C5FD" font-size="12" font-family="system-ui">Total Balance</text>
  <text x="32" y="188" fill="#FFFFFF" font-size="32" font-weight="700" font-family="system-ui">KES 847,250</text>
  <text x="32" y="218" fill="#86EFAC" font-size="14" font-family="system-ui">+12.4% this month</text>

  <!-- Quick Stats -->
  <rect x="16" y="260" width="166" height="80" rx="12" fill="#1E293B"/>
  <text x="32" y="292" fill="#64748B" font-size="12" font-family="system-ui">Income</text>
  <text x="32" y="318" fill="#4ADE80" font-size="20" font-weight="600" font-family="system-ui">+65,200</text>

  <rect x="193" y="260" width="166" height="80" rx="12" fill="#1E293B"/>
  <text x="209" y="292" fill="#64748B" font-size="12" font-family="system-ui">Expenses</text>
  <text x="209" y="318" fill="#F87171" font-size="20" font-weight="600" font-family="system-ui">-42,800</text>

  <!-- Recent Transactions -->
  <text x="16" y="380" fill="#94A3B8" font-size="14" font-weight="500" font-family="system-ui">Recent Transactions</text>

  <rect x="16" y="400" width="343" height="60" rx="12" fill="#1E293B"/>
  <circle cx="46" cy="430" r="18" fill="#334155"/>
  <text x="72" y="426" fill="#FFFFFF" font-size="14" font-family="system-ui">Safaricom Airtime</text>
  <text x="72" y="444" fill="#64748B" font-size="12" font-family="system-ui">Today, 2:30 PM</text>
  <text x="310" y="434" fill="#F87171" font-size="14" font-weight="500" font-family="system-ui">-1,500</text>

  <rect x="16" y="470" width="343" height="60" rx="12" fill="#1E293B"/>
  <circle cx="46" cy="500" r="18" fill="#334155"/>
  <text x="72" y="496" fill="#FFFFFF" font-size="14" font-family="system-ui">Salary Deposit</text>
  <text x="72" y="514" fill="#64748B" font-size="12" font-family="system-ui">Yesterday</text>
  <text x="300" y="504" fill="#4ADE80" font-size="14" font-weight="500" font-family="system-ui">+65,000</text>

  <rect x="16" y="540" width="343" height="60" rx="12" fill="#1E293B"/>
  <circle cx="46" cy="570" r="18" fill="#334155"/>
  <text x="72" y="566" fill="#FFFFFF" font-size="14" font-family="system-ui">Naivas Groceries</text>
  <text x="72" y="584" fill="#64748B" font-size="12" font-family="system-ui">Yesterday</text>
  <text x="310" y="574" fill="#F87171" font-size="14" font-weight="500" font-family="system-ui">-3,200</text>

  <!-- Bottom Nav -->
  <rect x="0" y="740" width="375" height="72" fill="#0F172A"/>
  <rect x="16" y="740" width="343" height="1" fill="#1E293B"/>
  <circle cx="62" cy="776" r="24" fill="#1E40AF"/>
  <circle cx="156" cy="776" r="20" fill="transparent"/>
  <circle cx="250" cy="776" r="20" fill="transparent"/>
  <circle cx="344" cy="776" r="20" fill="transparent"/>

  <defs>
    <linearGradient id="balanceGrad" x1="16" y1="120" x2="359" y2="240" gradientUnits="userSpaceOnUse">
      <stop stop-color="#2563EB"/>
      <stop offset="1" stop-color="#1D4ED8"/>
    </linearGradient>
  </defs>
</svg>
